# xmcd CD database file
#
# Track frame offsets:
#	150
#	5201
#	13892
#	48343
#	76055
#	99043
#	133709
#	169135
#	201451
#
# Disc length: 3049 seconds
#
# Revision: 0
# Processed by: cddbd v1.5.2PL0 Copyright (c) Steve Scherf et al.
# Submitted via: CDex 1.70beta2
#
DISCID=6f0be709
DTITLE=George Mraz - Jazz na Hrade
DYEAR=2005
DGENRE=Jazz
TTITLE0=Uvod - prezident Vaclav Klaus
TTITLE1=Zalet sokol, bily ptak
TTITLE2=For All We Know
TTITLE3=Picturesque
TTITLE4=My Foolish Heart
TTITLE5=Rhythm-A-Ning
TTITLE6=Rodinny portret
TTITLE7=Blues For Sarka
TTITLE8=Streamin'
EXTD=YEAR: 2005
EXTT0=
EXTT1=
EXTT2=
EXTT3=
EXTT4=
EXTT5=
EXTT6=
EXTT7=
EXTT8=
PLAYORDER=
